<?xml version="1.0" encoding="UTF-8" standalone="no"?><!DOCTYPE svg PUBLIC "-//W3C//DTD SVG 1.1//EN" "http://www.w3.org/Graphics/SVG/1.1/DTD/svg11.dtd"><svg width="100%" height="100%" viewBox="0 0 2067 2067" version="1.1" xmlns="http://www.w3.org/2000/svg" xmlns:xlink="http://www.w3.org/1999/xlink" xml:space="preserve" xmlns:serif="http://www.serif.com/" style="fill-rule:evenodd;clip-rule:evenodd;stroke-linejoin:round;stroke-miterlimit:2;"><g><path d="M687.508,839.004c150.426,-226.419 361.336,-334.053 627.441,-341.838c159.728,-4.672 310.246,29.333 457.243,90.696c84.404,35.234 78.848,20.294 84.105,101.942c4.584,71.206 17.628,141.85 26.905,212.039c-25.753,7.776 -27.837,-7.907 -32.569,-20.51c-78.609,-209.392 -245.379,-292.824 -453.454,-314.069c-377.834,-38.578 -622.941,259.903 -649.687,546.266c-26.084,279.287 55.818,511.077 302.518,659.084c318.637,191.165 882.513,88.23 970.272,-446.284c8.871,-54.028 13.943,-99.568 16.965,-160.138c25.291,5.86 27.21,23.211 27.139,36.779c-1.06,202.151 -40.352,391.333 -189.691,541.757c-108.053,108.839 -242.767,160.658 -391.751,175.913c-241.612,24.741 -467.26,-18.586 -656.455,-181.326c-191.095,-164.373 -261.761,-376.897 -233.793,-624.82c11.023,-97.711 42.592,-188.375 94.812,-275.491Z" style="fill-rule:nonzero;"/><path d="M231.119,1767.8c125.765,-56.248 168.153,-163.854 189.171,-285.011c8.945,-51.557 10.086,-103.725 10.006,-156.081c-0.51,-332.162 -0.224,-664.324 -0.258,-996.486c-0.011,-106.401 -25.005,-136.927 -130.369,-160.038c-5.895,-1.293 -12.11,-2.984 -13.211,-10.606c30.528,-25.401 389.598,-27.215 426.179,-2.035c-2.248,15.178 -14.707,12.686 -24.778,14.176c-81.992,12.129 -121.565,56.217 -122.01,139.924c-0.825,155.313 -0.326,310.632 -0.34,465.949c-0.018,206.063 0.264,412.127 -0.138,618.19c-0.142,73.096 -18.434,142.235 -44.571,210.415c-72.453,188.998 -301.807,273.457 -478.784,215.989c-16.305,-5.294 -43.614,-19.579 -40.187,-40.382c78.273,7.423 154.396,21.497 229.29,-14.004Z" style="fill-rule:nonzero;"/></g></svg>